<?xml version="1.0" encoding="utf-8"?>
<!-- Generator: Adobe Illustrator 18.1.1, SVG Export Plug-In . SVG Version: 6.00 Build 0)  -->
<svg version="1.2" baseProfile="tiny" id="Layer_1" xmlns="http://www.w3.org/2000/svg" xmlns:xlink="http://www.w3.org/1999/xlink"
	 x="0px" y="0px" viewBox="0 0 626.6 584.8" xml:space="preserve">
<g>
	<g>
		<path fill="#FFFFFF" d="M574.7,476H51.9C23.3,476,0,451.8,0,421.9V162.9c0-29.8,23.3-54.1,51.9-54.1h399.7v31.4H51.9
			c-11.3,0-20.5,10.2-20.5,22.7v259.1c0,12.5,9.2,22.7,20.5,22.7h522.7c11.3,0,20.5-10.2,20.5-22.7l0-138.2l31.4,0l0,138.2
			C626.6,451.8,603.3,476,574.7,476z"/>
	</g>
	<g id="POLI_1_">
		<g>
			<path fill="#FFFFFF" d="M147.5,202.7c0,10.9-2.6,19.9-7.7,27c-6.7,9.3-17.7,13.9-33.2,13.9H87v40.1H55.6V163h50
				c14.2,0,25,4.2,32.4,12.5C144.3,182.5,147.5,191.6,147.5,202.7z M114.9,203.1c0-4.5-1.3-8.1-3.9-10.8c-2.6-2.7-7.1-4-13.4-4H87
				v30.1h10.5c6.8,0,11.5-1.5,14-4.4C113.8,211.2,114.9,207.6,114.9,203.1z"/>
		</g>
		<g>
			<path fill="#FFFFFF" d="M286.6,223.7c0,16.4-5.5,30.8-16.4,43.2C257.8,281,240.9,288,219.7,288c-21.2,0-38-7-50.4-21.1
				c-10.9-12.4-16.4-26.8-16.4-43.2c0-7.5,1.5-15.2,4.4-23c2.9-7.9,6.9-14.6,11.9-20.2c12.4-14.1,29.3-21.1,50.5-21.1
				s38.1,7.1,50.5,21.1C281.1,192.9,286.6,207.3,286.6,223.7z M254,223.7c0-8.5-2.7-15.9-8.2-22.1c-7-7.9-15.7-11.9-26.2-11.9
				c-7.2,0-13.7,2-19.6,6.1c-5.9,4.1-10,9.4-12.5,16.2c-1.4,3.8-2.1,7.7-2.1,11.7c0,8.2,2.7,15.5,8.2,21.9c6.7,8,15.4,12,26.1,12
				c10.6,0,19.4-4,26.2-11.9C251.3,239.4,254,232.1,254,223.7z"/>
		</g>
		<g>
			<path fill="#FFFFFF" d="M363.6,283.7h-69.1V163h31.4v94.6h37.7V283.7z"/>
		</g>
		<g>
			<path fill="#FFFFFF" d="M404.5,283.7h-31.4V163h31.4V283.7z"/>
		</g>
	</g>
	<g id="RADIO">
		<g>
			<path fill="#FFFFFF" d="M156,421.9h-39l-30-46.4v46.4H55.6V301.1h48.8c14.3,0,24.8,4.3,31.7,12.8c5.5,6.9,8.3,15,8.3,24.3
				c0,10.7-3.2,19.2-9.6,25.6c-4.1,4.1-9.7,6.9-16.8,8.5L156,421.9z M111.8,340c0-4.3-1.6-7.9-4.7-10.8c-3-2.8-7.7-4.1-14.3-4.1H87
				v30.1h5.9c6.6,0,11.4-1.4,14.3-4.1C110.3,348,111.8,344.3,111.8,340z"/>
		</g>
		<g>
			<path fill="#FFFFFF" d="M285.1,421.9h-33.5l-7.8-21.1h-43.3l-8.3,21.1h-33.2l46.4-120.8h34.2L285.1,421.9z M235.3,376.9l-13-38.5
				l-13.2,38.5H235.3z"/>
		</g>
		<g>
			<path fill="#FFFFFF" d="M394.9,361.5c0,12.6-3.8,24.2-11.4,34.9c-7.6,10.7-17.3,18.1-29.1,22.2c-6.3,2.2-12.6,3.3-19.1,3.3H289
				V301.1h46.4c11.3,0,21.8,3.2,31.5,9.5c9.5,6.1,16.8,14.3,21.9,24.6C392.8,343.7,394.9,352.4,394.9,361.5z M362.3,361.5
				c0-8.3-2.3-15.6-7-21.8c-6.2-8.2-15.5-12.3-27.7-12.3h-7.2v68.4h7.2c12.4,0,21.6-4.1,27.7-12.3
				C360,377.1,362.3,369.8,362.3,361.5z"/>
		</g>
		<g>
			<path fill="#FFFFFF" d="M433.1,421.9h-31.4V301.1h31.4V421.9z"/>
		</g>
		<g>
			<path fill="#FFFFFF" d="M573.9,361.9c0,16.4-5.5,30.8-16.4,43.2c-12.4,14.1-29.3,21.1-50.5,21.1c-21.2,0-38-7-50.4-21.1
				c-10.9-12.4-16.4-26.8-16.4-43.2c0-7.5,1.5-15.2,4.4-23c2.9-7.9,6.9-14.6,11.9-20.2c12.4-14.1,29.3-21.1,50.5-21.1
				c21.2,0,38.1,7.1,50.5,21.1C568.4,331,573.9,345.5,573.9,361.9z M541.3,361.9c0-8.5-2.7-15.9-8.2-22.1
				c-7-7.9-15.7-11.9-26.2-11.9c-7.2,0-13.7,2-19.6,6.1c-5.9,4.1-10,9.4-12.5,16.2c-1.4,3.8-2.1,7.7-2.1,11.7
				c0,8.2,2.7,15.5,8.2,21.9c6.7,8,15.4,12,26.1,12c10.6,0,19.4-4,26.2-11.9C538.6,377.6,541.3,370.2,541.3,361.9z"/>
		</g>
	</g>
	<g>
		<path fill="#FFFFFF" d="M626.6,267.2h-31.4c0-70-57-127-127-127v-31.4C555.5,108.8,626.6,179.9,626.6,267.2z"/>
	</g>
	<g>
		<path fill="#FFFFFF" d="M581.7,267.2h-31.4c0-45.3-36.9-82.1-82.1-82.1v-31.4C530.8,153.7,581.7,204.6,581.7,267.2z"/>
	</g>
	<g>
		<path fill="#FFFFFF" d="M536.9,267.2h-31.4c0-20.6-16.7-37.3-37.3-37.3v-31.4C506.1,198.5,536.9,229.3,536.9,267.2z"/>
	</g>
	<g>
		<path fill="#FFFFFF" d="M492.2,265.4c0,12.1-9.8,22-22,22c-12.1,0-22-9.8-22-22c0-12.1,9.8-22,22-22
			C482.3,243.5,492.2,253.3,492.2,265.4z"/>
	</g>
</g>
</svg>
