<?xml version="1.0" standalone="no"?>
<!DOCTYPE svg PUBLIC "-//W3C//DTD SVG 20010904//EN"
 "http://www.w3.org/TR/2001/REC-SVG-20010904/DTD/svg10.dtd">
<svg version="1.0" xmlns="http://www.w3.org/2000/svg"
 width="64.000000pt" height="64.000000pt" viewBox="0 0 64.000000 64.000000"
 preserveAspectRatio="xMidYMid meet">

<g transform="translate(0.000000,64.000000) scale(0.100000,-0.100000)"
fill="#000000" stroke="none">
<path d="M124 509 c-4 -6 32 -49 82 -100 l89 -89 -88 -88 c-69 -69 -85 -90
-75 -100 10 -10 31 6 100 75 l88 88 88 -88 c69 -69 90 -85 100 -75 10 10 -6
31 -75 100 l-88 88 90 90 c71 71 87 92 77 102 -10 10 -31 -6 -102 -77 l-90
-90 -88 88 c-48 48 -90 87 -94 87 -4 0 -10 -5 -14 -11z"/>
</g>
</svg>
